<?xml version="1.0" encoding="UTF-8"?><svg id="Ebene_1" xmlns="http://www.w3.org/2000/svg" viewBox="0 0 1920 1281.42"><defs><style>.cls-1{fill:#1d1d1b;}</style></defs><path class="cls-1" d="M1483.52,624.38l-298.47-298.47c-9.02-9.02-23.64-9.02-32.66,0l-174.71,174.71,123.76,123.76c9.02,9.02,9.02,23.64,0,32.66l-123.76,123.76,174.71,174.71c9.02,9.02,23.64,9.02,32.66,0l298.47-298.47c9.02-9.02,9.02-23.64,0-32.66Z"/><path class="cls-1" d="M847.4,643.32c-.2-1.74-.2-3.48,0-5.22,.57-5.01,2.67-9.88,6.51-13.72l123.76-123.76-112.51-112.51c-4.88-4.88-11.39-7.02-17.77-6.63-5.42,.34-10.75,2.48-14.89,6.63l-163.08,163.08,74.83,74.83c8.12,8.12,8.12,21.28,0,29.39l-74.83,74.83,163.08,163.08c4.14,4.14,9.47,6.29,14.89,6.63,6.38,.4,12.89-1.75,17.77-6.63l112.51-112.51-123.76-123.76c-3.84-3.84-5.95-8.71-6.51-13.72Z"/><path class="cls-1" d="M847.4,643.32v-5.22c-.2,1.74-.2,3.48,0,5.22Z"/><path class="cls-1" d="M847.4,643.32v-5.22c-.2,1.74-.2,3.48,0,5.22Z"/><path class="cls-1" d="M596.24,624.38l73.2-73.2-64.71-64.71c-8.12-8.12-21.28-8.12-29.39,0l-139.54,139.54c-8.12,8.12-8.12,21.28,0,29.39l139.54,139.54c8.12,8.12,21.28,8.12,29.39,0l64.7-64.71-73.2-73.2c-9.02-9.02-9.02-23.64,0-32.66Z"/></svg>