<?xml version="1.0" encoding="utf-8"?>
<!-- Generator: Adobe Illustrator 27.4.0, SVG Export Plug-In . SVG Version: 6.00 Build 0)  -->
<svg version="1.1" id="Ebene_1" xmlns="http://www.w3.org/2000/svg" xmlns:xlink="http://www.w3.org/1999/xlink" x="0px" y="0px"
	 viewBox="0 0 1920 1281.4" style="enable-background:new 0 0 1920 1281.4;" xml:space="preserve">
<g>
	<path d="M958.3,530.5l-28.8,88.1h-21.9L888.2,559l-20,59.7h-21.8l-29-88.1h21.2l19.9,61.9l20.8-61.9h18.9l20.1,62.5l20.5-62.5
		H958.3L958.3,530.5z"/>
	<path d="M969.6,530.5H990v88.1h-20.4V530.5z"/>
	<path d="M1043,584l-11.8,12.3v22.3h-20.3v-88.1h20.3v41.2l39-41.2h22.7l-36.5,39.3l38.7,48.8h-23.8L1043,584L1043,584z"/>
	<path d="M1104.1,530.5h20.4v88.1h-20.4V530.5z"/>
	<path d="M1226.2,594.6c0,15.2-12.1,24-35.2,24h-45.6v-88.1h43.1c22,0,33.4,9.2,33.4,22.9c0,8.8-4.5,15.6-11.7,19.4
		C1219.9,576,1226.2,583.5,1226.2,594.6L1226.2,594.6z M1165.7,545.9v20.8h20.3c9.9,0,15.4-3.5,15.4-10.5s-5.4-10.3-15.4-10.3
		H1165.7z M1205.7,592.5c0-7.4-5.7-11-16.2-11h-23.8v21.8h23.8C1200,603.3,1205.7,600,1205.7,592.5z"/>
	<path d="M1299.7,599.8h-40.9l-7.8,18.9h-20.9l39.3-88.1h20.1l39.4,88.1h-21.4L1299.7,599.8L1299.7,599.8z M1293.3,584.3l-14-33.7
		l-14,33.7H1293.3L1293.3,584.3z"/>
	<path d="M1331.2,610l6.9-15.4c7.4,5.4,18.5,9.2,29.1,9.2c12.1,0,17-4,17-9.4c0-16.5-51.2-5.2-51.2-37.9c0-15,12.1-27.5,37.1-27.5
		c11.1,0,22.4,2.6,30.6,7.8l-6.3,15.5c-8.2-4.7-16.6-6.9-24.4-6.9c-12.1,0-16.7,4.5-16.7,10.1c0,16.2,51.2,5,51.2,37.4
		c0,14.7-12.2,27.3-37.4,27.3C1353.1,620.2,1339,616,1331.2,610L1331.2,610z"/>
	<path d="M1486.7,602.3v16.4h-68.2v-88.1h66.6v16.4h-46.3V566h40.9v15.9h-40.9v20.4L1486.7,602.3L1486.7,602.3z"/>
</g>
<g>
	<path d="M821.9,723l6.9-15.4c7.4,5.4,18.5,9.2,29.1,9.2c12.1,0,17-4,17-9.4c0-16.5-51.2-5.2-51.2-37.9c0-15,12.1-27.5,37.1-27.5
		c11.1,0,22.4,2.6,30.6,7.8l-6.3,15.5c-8.2-4.7-16.6-6.9-24.4-6.9c-12.1,0-16.7,4.5-16.7,10.1c0,16.2,51.2,5,51.2,37.4
		c0,14.7-12.2,27.3-37.4,27.3C843.8,733.2,829.7,729,821.9,723L821.9,723z"/>
	<path d="M908.4,692.9v-49.3h20.4v48.6c0,16.7,7.3,23.7,19.6,23.7s19.6-6.9,19.6-23.7v-48.6h20.1v49.3c0,25.9-14.9,40.3-39.9,40.3
		S908.4,718.8,908.4,692.9L908.4,692.9z"/>
	<path d="M1008.4,643.5h20.4v88.1h-20.4V643.5z"/>
	<path d="M1067.9,660.2h-28.2v-16.6h76.8v16.6h-28.2v71.5h-20.4L1067.9,660.2L1067.9,660.2z"/>
	<path d="M1195.7,715.3v16.4h-68.2v-88.1h66.6v16.4h-46.3V679h40.9v15.9h-40.9v20.4L1195.7,715.3L1195.7,715.3z"/>
</g>
<path d="M501.3,632.4v-2C501.2,631,501.2,631.7,501.3,632.4z"/>
<path d="M501.3,632.4v-2C501.2,631,501.2,631.7,501.3,632.4z"/>
<g>
	<path d="M748.5,624l-116-116c-3.5-3.5-9.2-3.5-12.7,0L551.9,576L600,624c3.5,3.5,3.5,9.2,0,12.7l-48.1,48.1l67.9,67.9
		c3.5,3.5,9.2,3.5,12.7,0l116-116C752,633.2,752,627.6,748.5,624L748.5,624z"/>
	<path d="M501.3,631.4c-0.1-0.7-0.1-1.3,0-2c0.2-2,1-3.8,2.5-5.3l48.1-48.1l-43.7-43.7c-1.9-1.9-4.4-2.7-6.9-2.6
		c-2.1,0.1-4.2,1-5.8,2.6l-63.4,63.4l29.1,29.1c3.1,3.2,3.1,8.3,0,11.4l-29.1,29.1l63.4,63.4c1.6,1.6,3.7,2.4,5.8,2.6
		c2.5,0.2,5-0.7,6.9-2.6l43.7-43.7l-48.1-48.1C502.3,635.2,501.5,633.3,501.3,631.4L501.3,631.4z"/>
	<path d="M403.7,624l28.5-28.5L407,570.4c-3.1-3.2-8.3-3.2-11.4,0l-54.2,54.2c-3.1,3.2-3.1,8.3,0,11.4l54.2,54.2
		c3.1,3.2,8.3,3.2,11.4,0l25.1-25.2l-28.5-28.5C400.2,633.2,400.2,627.5,403.7,624L403.7,624z"/>
</g>
</svg>
