<?xml version="1.0" encoding="UTF-8"?><svg id="Ebene_1" xmlns="http://www.w3.org/2000/svg" xmlns:xlink="http://www.w3.org/1999/xlink" viewBox="0 0 1920 1281.42"><defs><style>.cls-1{fill:url(#Neues_Verlaufsfeld_17-2);}.cls-2{fill:url(#Neues_Verlaufsfeld_16);}.cls-3{fill:url(#Neues_Verlaufsfeld_17);}.cls-4{fill:url(#Neues_Verlaufsfeld_15);}.cls-5{fill:url(#Unbenannter_Verlauf_3);}</style><linearGradient id="Neues_Verlaufsfeld_17" x1="847.15" y1="640.71" x2="1490.29" y2="640.71" gradientUnits="userSpaceOnUse"><stop offset="0" stop-color="#59a4d9"/><stop offset=".08" stop-color="#4d9bd5"/><stop offset=".34" stop-color="#2b83cb"/><stop offset=".58" stop-color="#1371c4"/><stop offset=".81" stop-color="#0566c0"/><stop offset="1" stop-color="#0063bf"/></linearGradient><linearGradient id="Neues_Verlaufsfeld_16" x1="669.43" y1="640.71" x2="977.68" y2="640.71" gradientUnits="userSpaceOnUse"><stop offset="0" stop-color="#5cb075"/><stop offset="0" stop-color="#5baf74"/><stop offset=".36" stop-color="#45a36c"/><stop offset=".7" stop-color="#379b67"/><stop offset="1" stop-color="#396"/></linearGradient><linearGradient id="Neues_Verlaufsfeld_17-2" x1="847.15" y1="640.71" x2="1490.29" y2="640.71" xlink:href="#Neues_Verlaufsfeld_17"/><linearGradient id="Unbenannter_Verlauf_3" x1="589.47" y1="640.71" x2="1108.21" y2="640.71" gradientUnits="userSpaceOnUse"><stop offset="0" stop-color="#396"/><stop offset=".15" stop-color="#396"/><stop offset="1" stop-color="#396"/></linearGradient><linearGradient id="Neues_Verlaufsfeld_15" x1="429.71" y1="640.71" x2="750.35" y2="640.71" gradientUnits="userSpaceOnUse"><stop offset="0" stop-color="#cd2e29"/><stop offset=".19" stop-color="#ba1d1a"/><stop offset=".44" stop-color="#a70c0b"/><stop offset=".71" stop-color="#9c0302"/><stop offset="1" stop-color="#900"/></linearGradient></defs><path class="cls-3" d="M1483.52,624.38l-298.47-298.47c-9.02-9.02-23.64-9.02-32.66,0l-174.71,174.71,123.76,123.76c9.02,9.02,9.02,23.64,0,32.66l-123.76,123.76,174.71,174.71c9.02,9.02,23.64,9.02,32.66,0l298.47-298.47c9.02-9.02,9.02-23.64,0-32.66Z"/><path class="cls-2" d="M847.4,643.32c-.2-1.74-.2-3.48,0-5.22,.57-5.01,2.67-9.88,6.51-13.72l123.76-123.76-112.51-112.51c-4.88-4.88-11.39-7.02-17.77-6.63-5.42,.34-10.75,2.48-14.89,6.63l-163.08,163.08,74.83,74.83c8.12,8.12,8.12,21.28,0,29.39l-74.83,74.83,163.08,163.08c4.14,4.14,9.47,6.29,14.89,6.63,6.38,.4,12.89-1.75,17.77-6.63l112.51-112.51-123.76-123.76c-3.84-3.84-5.95-8.71-6.51-13.72Z"/><path class="cls-1" d="M847.4,643.32v-5.22c-.2,1.74-.2,3.48,0,5.22Z"/><path class="cls-5" d="M847.4,643.32v-5.22c-.2,1.74-.2,3.48,0,5.22Z"/><path class="cls-4" d="M596.24,624.38l73.2-73.2-64.71-64.71c-8.12-8.12-21.28-8.12-29.39,0l-139.54,139.54c-8.12,8.12-8.12,21.28,0,29.39l139.54,139.54c8.12,8.12,21.28,8.12,29.39,0l64.7-64.71-73.2-73.2c-9.02-9.02-9.02-23.64,0-32.66Z"/></svg>