<?xml version="1.0" encoding="utf-8"?>
<!-- Generator: Adobe Illustrator 27.4.0, SVG Export Plug-In . SVG Version: 6.00 Build 0)  -->
<svg version="1.1" id="Ebene_1" xmlns="http://www.w3.org/2000/svg" xmlns:xlink="http://www.w3.org/1999/xlink" x="0px" y="0px"
	 viewBox="0 0 1920 1281.4" style="enable-background:new 0 0 1920 1281.4;" xml:space="preserve">
<g>
	<path d="M1014.8,569L974,693.6h-31l-27.4-84.4l-28.3,84.4h-30.8L815.6,569h29.9l28.1,87.6L903,569h26.7l28.5,88.3l29-88.3H1014.8
		L1014.8,569z"/>
	<path d="M1030.8,569h28.8v124.6h-28.8V569z"/>
	<path d="M1134.6,644.7l-16.7,17.4v31.5h-28.7V569h28.7v58.2L1173,569h32l-51.6,55.5l54.6,69.1h-33.6L1134.6,644.7L1134.6,644.7z"/>
	<path d="M1220.9,569h28.8v124.6h-28.8V569z"/>
	<path d="M1393.6,659.6c0,21.5-17.1,34-49.8,34h-64.4V569h60.9c31.2,0,47.2,13,47.2,32.4c0,12.5-6.4,22.1-16.6,27.4
		C1384.7,633.3,1393.6,644,1393.6,659.6L1393.6,659.6z M1307.9,590.8v29.4h28.7c14.1,0,21.7-5,21.7-14.8s-7.7-14.6-21.7-14.6H1307.9
		z M1364.5,656.6c0-10.5-8-15.5-23-15.5h-33.6v30.8h33.6C1356.5,671.9,1364.5,667.3,1364.5,656.6L1364.5,656.6z"/>
	<path d="M1497.5,666.9h-57.8l-11,26.7h-29.6l55.5-124.6h28.5l55.7,124.6h-30.3L1497.5,666.9L1497.5,666.9z M1488.4,645l-19.8-47.7
		l-19.8,47.7H1488.4L1488.4,645z"/>
	<path d="M1542,681.4l9.8-21.7c10.5,7.7,26.2,13,41.1,13c17.1,0,24-5.7,24-13.3c0-23.3-72.4-7.3-72.4-53.6
		c0-21.2,17.1-38.8,52.5-38.8c15.7,0,31.7,3.7,43.2,11l-8.9,21.9c-11.6-6.6-23.5-9.8-34.5-9.8c-17.1,0-23.7,6.4-23.7,14.2
		c0,23,72.4,7.1,72.4,52.9c0,20.8-17.3,38.6-52.9,38.6C1573,695.8,1553,689.9,1542,681.4L1542,681.4z"/>
	<path d="M1761.8,670.5v23.1h-96.5V569h94.2v23.1H1694v27h57.8v22.4H1694v28.8L1761.8,670.5L1761.8,670.5z"/>
</g>
<g>
	<path d="M748.5,624l-116-116c-3.5-3.5-9.2-3.5-12.7,0L551.9,576L600,624c3.5,3.5,3.5,9.2,0,12.7l-48.1,48.1l67.9,67.9
		c3.5,3.5,9.2,3.5,12.7,0l116-116C752,633.2,752,627.6,748.5,624L748.5,624z"/>
	<path d="M501.3,631.4c-0.1-0.7-0.1-1.3,0-2c0.2-2,1-3.8,2.5-5.3l48.1-48.1l-43.7-43.7c-1.9-1.9-4.4-2.7-6.9-2.6
		c-2.1,0.1-4.2,1-5.8,2.6l-63.4,63.4l29.1,29.1c3.1,3.2,3.1,8.3,0,11.4l-29.1,29.1l63.4,63.4c1.6,1.6,3.7,2.4,5.8,2.6
		c2.5,0.2,5-0.7,6.9-2.6l43.7-43.7l-48.1-48.1C502.3,635.2,501.5,633.3,501.3,631.4L501.3,631.4z"/>
	<path d="M501.3,631.4v-2C501.2,630,501.2,630.7,501.3,631.4z"/>
	<path d="M501.3,631.4v-2C501.2,630,501.2,630.7,501.3,631.4z"/>
	<path d="M403.7,624l28.5-28.5L407,570.4c-3.1-3.2-8.3-3.2-11.4,0l-54.2,54.2c-3.1,3.2-3.1,8.3,0,11.4l54.2,54.2
		c3.1,3.2,8.3,3.2,11.4,0l25.1-25.2l-28.5-28.5C400.2,633.2,400.2,627.5,403.7,624L403.7,624z"/>
</g>
</svg>
