<?xml version="1.0" encoding="UTF-8"?><svg id="Ebene_1" xmlns="http://www.w3.org/2000/svg" viewBox="0 0 1920 1281.42"><defs><style>.cls-1{fill:#fff;}</style></defs><g><path class="cls-1" d="M1014.77,569.04l-40.76,124.6h-30.97l-27.41-84.37-28.3,84.37h-30.79l-40.94-124.6h29.9l28.12,87.57,29.37-87.57h26.7l28.48,88.29,29.01-88.29h27.59Z"/><path class="cls-1" d="M1030.8,569.04h28.83v124.6h-28.83v-124.6Z"/><path class="cls-1" d="M1134.57,644.69l-16.73,17.44v31.5h-28.66v-124.6h28.66v58.2l55.18-58.2h32.04l-51.62,55.53,54.64,69.06h-33.64l-39.87-48.95Z"/><path class="cls-1" d="M1220.9,569.04h28.83v124.6h-28.83v-124.6Z"/><path class="cls-1" d="M1393.55,659.64c0,21.54-17.09,34-49.84,34h-64.43v-124.6h60.88c31.15,0,47.17,12.99,47.17,32.39,0,12.46-6.41,22.07-16.55,27.41,13.88,4.45,22.78,15.13,22.78,30.79Zm-85.62-68.88v29.37h28.66c14.06,0,21.71-4.98,21.71-14.77s-7.65-14.6-21.71-14.6h-28.66Zm56.6,65.86c0-10.5-8.01-15.49-22.96-15.49h-33.64v30.79h33.64c14.95,0,22.96-4.63,22.96-15.31Z"/><path class="cls-1" d="M1497.5,666.94h-57.85l-11.04,26.7h-29.55l55.53-124.6h28.48l55.71,124.6h-30.26l-11.04-26.7Zm-9.08-21.89l-19.76-47.7-19.76,47.7h39.52Z"/><path class="cls-1" d="M1542.01,681.36l9.79-21.72c10.5,7.65,26.17,12.99,41.12,12.99,17.09,0,24.03-5.7,24.03-13.35,0-23.32-72.44-7.3-72.44-53.58,0-21.18,17.09-38.8,52.51-38.8,15.66,0,31.68,3.74,43.25,11.04l-8.9,21.89c-11.57-6.59-23.5-9.79-34.53-9.79-17.09,0-23.67,6.41-23.67,14.24,0,22.96,72.44,7.12,72.44,52.86,0,20.83-17.26,38.62-52.86,38.62-19.76,0-39.69-5.87-50.73-14.42Z"/><path class="cls-1" d="M1761.83,670.5v23.14h-96.47v-124.6h94.16v23.14h-65.5v27.05h57.85v22.43h-57.85v28.83h67.82Z"/></g><g><path class="cls-1" d="M748.51,624.04l-115.99-115.99c-3.5-3.51-9.19-3.51-12.69,0l-67.9,67.9,48.1,48.1c3.5,3.51,3.5,9.19,0,12.69l-48.1,48.1,67.9,67.9c3.51,3.5,9.19,3.5,12.69,0l115.99-115.99c3.5-3.5,3.5-9.19,0-12.69Z"/><path class="cls-1" d="M501.3,631.4c-.08-.68-.08-1.35,0-2.03,.22-1.95,1.04-3.84,2.53-5.33l48.1-48.1-43.72-43.72c-1.9-1.9-4.42-2.73-6.91-2.58-2.11,.13-4.18,.97-5.79,2.58l-63.38,63.38,29.08,29.08c3.15,3.15,3.15,8.27,0,11.42l-29.08,29.08,63.38,63.38c1.61,1.61,3.68,2.44,5.79,2.58,2.48,.15,5.01-.68,6.91-2.58l43.72-43.72-48.1-48.1c-1.49-1.49-2.31-3.39-2.53-5.33Z"/><path class="cls-1" d="M501.3,631.4v-2.03c-.08,.68-.08,1.35,0,2.03Z"/><path class="cls-1" d="M501.3,631.4v-2.03c-.08,.68-.08,1.35,0,2.03Z"/><path class="cls-1" d="M403.69,624.04l28.45-28.45-25.15-25.15c-3.15-3.15-8.27-3.15-11.42,0l-54.23,54.23c-3.15,3.15-3.15,8.27,0,11.42l54.23,54.23c3.15,3.15,8.27,3.15,11.42,0l25.15-25.15-28.45-28.45c-3.5-3.5-3.5-9.19,0-12.69Z"/></g></svg>