<?xml version="1.0" encoding="UTF-8"?>
<svg id="Ebene_1" xmlns="http://www.w3.org/2000/svg" xmlns:xlink="http://www.w3.org/1999/xlink" viewBox="0 0 1920 1281.42"><defs><style>.cls-1{fill:url(#Neues_Verlaufsfeld_17-2);}.cls-2{fill:#0063bf;}.cls-3{fill:#900;}.cls-4{fill:url(#Neues_Verlaufsfeld_16);}.cls-5{fill:url(#Neues_Verlaufsfeld_17);}.cls-6{fill:url(#Neues_Verlaufsfeld_15);}.cls-7{fill:url(#Unbenannter_Verlauf_3);}</style><linearGradient id="Neues_Verlaufsfeld_17" x1="501.2" y1="631.39" x2="751.14" y2="631.39" gradientUnits="userSpaceOnUse"><stop offset="0" stop-color="#59a4d9"/><stop offset=".08" stop-color="#4d9bd5"/><stop offset=".34" stop-color="#2b83cb"/><stop offset=".58" stop-color="#1371c4"/><stop offset=".81" stop-color="#0566c0"/><stop offset="1" stop-color="#0063bf"/></linearGradient><linearGradient id="Unbenannter_Verlauf_3" x1="401.06" y1="631.39" x2="602.66" y2="631.39" gradientUnits="userSpaceOnUse"><stop offset="0" stop-color="#396"/><stop offset=".15" stop-color="#396"/><stop offset="1" stop-color="#396"/></linearGradient><linearGradient id="Neues_Verlaufsfeld_17-2" x1="501.2" y1="630.39" x2="751.14" y2="630.39" xlink:href="#Neues_Verlaufsfeld_17"/><linearGradient id="Neues_Verlaufsfeld_16" x1="194.97" y1="630.39" x2="671.95" y2="630.39" gradientUnits="userSpaceOnUse"><stop offset="0" stop-color="#5cb075"/><stop offset="0" stop-color="#5baf74"/><stop offset=".36" stop-color="#45a36c"/><stop offset=".7" stop-color="#379b67"/><stop offset="1" stop-color="#396"/></linearGradient><linearGradient id="Neues_Verlaufsfeld_15" x1="338.98" y1="630.39" x2="463.58" y2="630.39" gradientUnits="userSpaceOnUse"><stop offset="0" stop-color="#cd2e29"/><stop offset=".19" stop-color="#ba1d1a"/><stop offset=".44" stop-color="#a70c0b"/><stop offset=".71" stop-color="#9c0302"/><stop offset="1" stop-color="#900"/></linearGradient></defs><g><path class="cls-2" d="M958.3,530.51l-28.83,88.13h-21.91l-19.39-59.68-20.02,59.68h-21.78l-28.96-88.13h21.15l19.89,61.94,20.77-61.94h18.88l20.14,62.45,20.52-62.45h19.51Z"/><path class="cls-2" d="M969.63,530.51h20.4v88.13h-20.4v-88.13Z"/><path class="cls-2" d="M1043.03,584.02l-11.83,12.34v22.28h-20.27v-88.13h20.27v41.17l39.03-41.17h22.66l-36.51,39.28,38.65,48.85h-23.8l-28.2-34.62Z"/><path class="cls-2" d="M1104.09,530.51h20.4v88.13h-20.4v-88.13Z"/><path class="cls-2" d="M1226.21,594.59c0,15.23-12.09,24.05-35.25,24.05h-45.58v-88.13h43.06c22.03,0,33.36,9.19,33.36,22.91,0,8.81-4.53,15.61-11.71,19.39,9.82,3.15,16.12,10.7,16.12,21.78Zm-60.56-48.72v20.77h20.27c9.95,0,15.36-3.53,15.36-10.45s-5.41-10.32-15.36-10.32h-20.27Zm40.04,46.58c0-7.43-5.67-10.95-16.24-10.95h-23.8v21.78h23.8c10.58,0,16.24-3.27,16.24-10.83Z"/><path class="cls-2" d="M1299.74,599.76h-40.92l-7.81,18.88h-20.9l39.28-88.13h20.14l39.41,88.13h-21.4l-7.81-18.88Zm-6.42-15.49l-13.97-33.74-13.98,33.74h27.95Z"/><path class="cls-2" d="M1331.22,609.95l6.92-15.36c7.43,5.41,18.51,9.19,29.08,9.19,12.09,0,17-4.03,17-9.44,0-16.49-51.24-5.16-51.24-37.9,0-14.98,12.09-27.45,37.14-27.45,11.08,0,22.41,2.64,30.59,7.81l-6.29,15.49c-8.18-4.66-16.62-6.92-24.42-6.92-12.09,0-16.74,4.53-16.74,10.07,0,16.24,51.24,5.04,51.24,37.39,0,14.73-12.21,27.32-37.39,27.32-13.97,0-28.08-4.15-35.88-10.2Z"/><path class="cls-2" d="M1486.7,602.27v16.37h-68.24v-88.13h66.6v16.37h-46.33v19.14h40.92v15.86h-40.92v20.4h47.97Z"/></g><g><path class="cls-3" d="M821.9,722.97l6.92-15.36c7.43,5.41,18.51,9.19,29.08,9.19,12.09,0,17-4.03,17-9.44,0-16.49-51.24-5.16-51.24-37.9,0-14.98,12.09-27.45,37.14-27.45,11.08,0,22.41,2.64,30.59,7.81l-6.3,15.49c-8.18-4.66-16.62-6.92-24.42-6.92-12.09,0-16.74,4.53-16.74,10.07,0,16.24,51.24,5.04,51.24,37.39,0,14.73-12.21,27.32-37.39,27.32-13.97,0-28.08-4.15-35.88-10.2Z"/><path class="cls-3" d="M908.39,692.88v-49.35h20.4v48.6c0,16.74,7.3,23.67,19.64,23.67s19.64-6.92,19.64-23.67v-48.6h20.14v49.35c0,25.94-14.86,40.29-39.91,40.29s-39.91-14.35-39.91-40.29Z"/><path class="cls-3" d="M1008.36,643.53h20.4v88.13h-20.4v-88.13Z"/><path class="cls-3" d="M1067.91,660.15h-28.2v-16.62h76.8v16.62h-28.2v71.51h-20.4v-71.51Z"/><path class="cls-3" d="M1195.7,715.29v16.37h-68.24v-88.13h66.6v16.37h-46.33v19.14h40.92v15.86h-40.92v20.4h47.97Z"/></g><path class="cls-5" d="M501.3,632.4v-2.03c-.08,.68-.08,1.35,0,2.03Z"/><path class="cls-7" d="M501.3,632.4v-2.03c-.08,.68-.08,1.35,0,2.03Z"/><g><path class="cls-1" d="M748.51,624.04l-115.99-115.99c-3.5-3.51-9.19-3.51-12.69,0l-67.9,67.9,48.1,48.1c3.5,3.51,3.5,9.19,0,12.69l-48.1,48.1,67.9,67.9c3.51,3.5,9.19,3.5,12.69,0l115.99-115.99c3.5-3.5,3.5-9.19,0-12.69Z"/><path class="cls-4" d="M501.3,631.4c-.08-.68-.08-1.35,0-2.03,.22-1.95,1.04-3.84,2.53-5.33l48.1-48.1-43.72-43.72c-1.9-1.9-4.42-2.73-6.91-2.58-2.11,.13-4.18,.97-5.79,2.58l-63.38,63.38,29.08,29.08c3.15,3.15,3.15,8.27,0,11.42l-29.08,29.08,63.38,63.38c1.61,1.61,3.68,2.44,5.79,2.58,2.48,.15,5.01-.68,6.91-2.58l43.72-43.72-48.1-48.1c-1.49-1.49-2.31-3.39-2.53-5.33Z"/><path class="cls-6" d="M403.69,624.04l28.45-28.45-25.15-25.15c-3.15-3.15-8.27-3.15-11.42,0l-54.23,54.23c-3.15,3.15-3.15,8.27,0,11.42l54.23,54.23c3.15,3.15,8.27,3.15,11.42,0l25.15-25.15-28.45-28.45c-3.5-3.5-3.5-9.19,0-12.69Z"/></g></svg>