<?xml version="1.0" encoding="UTF-8"?>
<svg id="Ebene_1" data-name="Ebene 1" xmlns="http://www.w3.org/2000/svg" xmlns:xlink="http://www.w3.org/1999/xlink" viewBox="0 0 493.04 394.04">
  <defs>
    <style>
      .cls-1 {
        fill: #0063bf;
      }

      .cls-2 {
        fill: #900;
      }

      .cls-3 {
        fill: url(#Unbenannter_Verlauf_10);
      }

      .cls-4 {
        fill: url(#Unbenannter_Verlauf_5);
      }

      .cls-5 {
        fill: url(#Unbenannter_Verlauf);
      }
    </style>
    <linearGradient id="Unbenannter_Verlauf" data-name="Unbenannter Verlauf" x1="148.4" y1="1343.88" x2="297.99" y2="1343.88" gradientTransform="translate(0 1462.46) scale(1 -1)" gradientUnits="userSpaceOnUse">
      <stop offset="0" stop-color="#59a4d9"/>
      <stop offset=".08" stop-color="#4d9bd5"/>
      <stop offset=".34" stop-color="#2b83cb"/>
      <stop offset=".58" stop-color="#1371c4"/>
      <stop offset=".81" stop-color="#0566c0"/>
      <stop offset="1" stop-color="#0063bf"/>
    </linearGradient>
    <linearGradient id="Unbenannter_Verlauf_10" data-name="Unbenannter Verlauf 10" x1="107.06" y1="1343.88" x2="178.76" y2="1343.88" gradientTransform="translate(0 1462.46) scale(1 -1)" gradientUnits="userSpaceOnUse">
      <stop offset="0" stop-color="#5cb075"/>
      <stop offset="0" stop-color="#5baf74"/>
      <stop offset=".36" stop-color="#45a36c"/>
      <stop offset=".7" stop-color="#379b67"/>
      <stop offset="1" stop-color="#396"/>
    </linearGradient>
    <linearGradient id="Unbenannter_Verlauf_5" data-name="Unbenannter Verlauf 5" x1="51.3" y1="1343.89" x2="125.88" y2="1343.89" gradientTransform="translate(0 1462.46) scale(1 -1)" gradientUnits="userSpaceOnUse">
      <stop offset="0" stop-color="#cd2e29"/>
      <stop offset=".19" stop-color="#ba1d1a"/>
      <stop offset=".44" stop-color="#a70c0b"/>
      <stop offset=".71" stop-color="#9c0302"/>
      <stop offset="1" stop-color="#900"/>
    </linearGradient>
  </defs>
  <g>
    <g>
      <path class="cls-1" d="m132.87,222.21l-16.69,51.02h-12.69l-11.23-34.55-11.59,34.55h-12.61l-16.77-51.02h12.25l11.52,35.86,12.03-35.86h10.93l11.66,36.16,11.88-36.16h11.31Z"/>
      <path class="cls-1" d="m139.43,222.21h11.81v51.02h-11.81v-51.02Z"/>
      <path class="cls-1" d="m181.92,253.19l-6.85,7.14v12.9h-11.74v-51.02h11.74v23.84l22.6-23.84h13.12l-21.14,22.74,22.38,28.28h-13.78l-16.33-20.04h0Z"/>
      <path class="cls-1" d="m217.28,222.21h11.81v51.02h-11.81v-51.02Z"/>
      <path class="cls-1" d="m287.98,259.31c0,8.82-7,13.92-20.41,13.92h-26.39v-51.02h24.93c12.75,0,19.31,5.32,19.31,13.26,0,5.1-2.62,9.04-6.78,11.23,5.69,1.82,9.33,6.19,9.33,12.61h0Zm-35.06-28.21v12.03h11.74c5.76,0,8.89-2.04,8.89-6.05s-3.13-5.97-8.89-5.97h-11.74Zm23.18,26.97c0-4.3-3.28-6.34-9.4-6.34h-13.78v12.61h13.78c6.13,0,9.4-1.89,9.4-6.27Z"/>
      <path class="cls-1" d="m330.55,262.31h-23.69l-4.52,10.93h-12.1l22.74-51.02h11.66l22.82,51.02h-12.39l-4.52-10.93h0Zm-3.72-8.97l-8.09-19.53-8.09,19.53h16.18Z"/>
      <path class="cls-1" d="m348.78,268.21l4.01-8.89c4.3,3.13,10.72,5.32,16.84,5.32,7,0,9.84-2.33,9.84-5.47,0-9.55-29.67-2.99-29.67-21.94,0-8.67,7-15.89,21.5-15.89,6.41,0,12.97,1.53,17.71,4.52l-3.64,8.97c-4.74-2.7-9.62-4.01-14.14-4.01-7,0-9.69,2.62-9.69,5.83,0,9.4,29.67,2.92,29.67,21.65,0,8.53-7.07,15.82-21.65,15.82-8.09,0-16.26-2.4-20.77-5.91h0Z"/>
      <path class="cls-1" d="m438.8,263.76v9.48h-39.51v-51.02h38.56v9.48h-26.82v11.08h23.69v9.18h-23.69v11.81h27.77Z"/>
    </g>
    <g>
      <path class="cls-2" d="m53.9,333.64l4.01-8.89c4.3,3.13,10.72,5.32,16.84,5.32,7,0,9.84-2.33,9.84-5.47,0-9.55-29.67-2.99-29.67-21.94,0-8.67,7-15.89,21.5-15.89,6.41,0,12.97,1.53,17.71,4.52l-3.65,8.97c-4.74-2.7-9.62-4.01-14.14-4.01-7,0-9.69,2.62-9.69,5.83,0,9.4,29.67,2.92,29.67,21.65,0,8.53-7.07,15.82-21.65,15.82-8.09,0-16.26-2.4-20.77-5.91h0Z"/>
      <path class="cls-2" d="m103.97,316.22v-28.57h11.81v28.14c0,9.69,4.23,13.7,11.37,13.7s11.37-4.01,11.37-13.7v-28.14h11.66v28.57c0,15.02-8.6,23.33-23.11,23.33s-23.11-8.31-23.11-23.33h0Z"/>
      <path class="cls-2" d="m161.85,287.65h11.81v51.02h-11.81v-51.02Z"/>
      <path class="cls-2" d="m196.33,297.27h-16.33v-9.62h44.46v9.62h-16.33v41.4h-11.81v-41.4h0Z"/>
      <path class="cls-2" d="m270.32,329.19v9.48h-39.51v-51.02h38.56v9.48h-26.82v11.08h23.69v9.18h-23.69v11.81h27.77Z"/>
    </g>
  </g>
  <g>
    <path class="cls-5" d="m296.42,114.78l-69.43-69.43c-2.1-2.1-5.5-2.1-7.6,0l-40.64,40.64,28.79,28.79c2.1,2.1,2.1,5.5,0,7.6l-28.79,28.79,40.64,40.64c2.1,2.1,5.5,2.1,7.6,0l69.43-69.43c2.1-2.1,2.1-5.5,0-7.6h0Z"/>
    <path class="cls-3" d="m148.45,119.19c-.05-.4-.05-.81,0-1.21.13-1.17.62-2.3,1.51-3.19l28.79-28.79-26.17-26.17c-1.14-1.14-2.65-1.63-4.13-1.54-1.26.08-2.5.58-3.46,1.54l-37.93,37.93,17.41,17.41c1.89,1.89,1.89,4.95,0,6.84l-17.41,17.41,37.93,37.93c.96.96,2.2,1.46,3.46,1.54,1.48.09,3-.41,4.13-1.54l26.17-26.17-28.79-28.79c-.89-.89-1.38-2.03-1.51-3.19h0Z"/>
    <path class="cls-4" d="m90.03,114.78l17.03-17.03-15.05-15.05c-1.89-1.89-4.95-1.89-6.84,0l-32.46,32.46c-1.89,1.89-1.89,4.95,0,6.84l32.46,32.46c1.89,1.89,4.95,1.89,6.84,0l15.05-15.05-17.03-17.03c-2.1-2.1-2.1-5.5,0-7.6h0Z"/>
  </g>
</svg>